<?xml version="1.0" encoding="UTF-8" standalone="no"?>
<!-- Created with Inkscape (http://www.inkscape.org/) -->

<svg
   width="512"
   height="512"
   viewBox="0 0 512 512"
   version="1.1"
   id="svg1"
   inkscape:version="1.3.2 (091e20e, 2023-11-25, custom)"
   sodipodi:docname="HelmetFire Icon.svg"
   xml:space="preserve"
   xmlns:inkscape="http://www.inkscape.org/namespaces/inkscape"
   xmlns:sodipodi="http://sodipodi.sourceforge.net/DTD/sodipodi-0.dtd"
   xmlns="http://www.w3.org/2000/svg"
   xmlns:svg="http://www.w3.org/2000/svg"><sodipodi:namedview
     id="namedview1"
     pagecolor="#ffffff"
     bordercolor="#000000"
     borderopacity="0.25"
     inkscape:showpageshadow="2"
     inkscape:pageopacity="0.0"
     inkscape:pagecheckerboard="0"
     inkscape:deskcolor="#d1d1d1"
     inkscape:document-units="px"
     inkscape:zoom="16"
     inkscape:cx="48.46875"
     inkscape:cy="246.53125"
     inkscape:window-width="1920"
     inkscape:window-height="1017"
     inkscape:window-x="-8"
     inkscape:window-y="-8"
     inkscape:window-maximized="1"
     inkscape:current-layer="layer2" /><defs
     id="defs1"><clipPath
       clipPathUnits="userSpaceOnUse"
       id="clipPath11304"><path
         d="M 0,660 H 660 V 0 H 0 Z"
         id="path11302"
         inkscape:connector-curvature="0" /></clipPath></defs><g
     inkscape:label="Flames"
     inkscape:groupmode="layer"
     id="layer1"
     style="display:inline"
     transform="matrix(1.4549804,0,0,1.1917028,-111.63563,-78.810054)"><path
       id="circle4662"
       d="m 311.79323,77.262052 c -26.40099,0 -47.69566,7.83399 -63.26908,23.265408 -7.62437,7.55431 -12.97313,15.93954 -17.03258,23.89356 -48.35613,-0.0187 -63.99866,13.08843 -71.24583,28.26773 -24.51829,37.44412 -77.611774,119.12582 -57.14365,141.00275 30.86614,32.99063 158.2318,36.65819 231.27063,-7.20517 2.22654,-1.6271 4.65577,-3.25325 7.31354,-5.00301 6.20424,-4.08548 12.62837,-8.30221 18.0394,-14.38232 7.64613,-8.59791 11.53517,-19.00233 11.53517,-30.92024 0,-7.07577 -3.15772,-13.55297 -8.24614,-17.46962 13.5166,-5.67743 26.61382,-15.17055 35.1686,-30.26412 7.51702,-13.26253 8.52572,-27.69646 10.11133,-39.06672 0.79281,-5.68539 1.72447,-10.59778 3.23956,-14.24322 1.51509,-3.64606 3.35626,-6.06718 6.79811,-7.90083 2.05298,-1.09591 3.25149,-3.86932 2.74871,-6.34257 -0.50281,-2.47325 -2.65651,-4.3978 -4.93291,-4.40148 -11.47077,0 -21.11797,0.97684 -29.32798,3.77274 3.72506,-6.79119 9.22547,-13.09194 14.25875,-17.6061 2.61199,-2.34281 5.11496,-4.219518 7.06812,-5.440438 1.94766,-1.2274 3.77751,-1.59221 3.06285,-1.59221 0.13119,-0.002 0.26231,-0.0108 0.39267,-0.0273 0.12341,-0.0117 0.2463,-0.0299 0.36813,-0.0547 0.25279,-0.0635 0.49984,-0.15524 0.73626,-0.27339 0.24161,-0.11929 0.47226,-0.2661 0.68719,-0.43741 0.31481,-0.24367 0.59701,-0.53954 0.83443,-0.87484 0.23882,-0.34801 0.42986,-0.73663 0.56446,-1.14823 0.2236,-0.67771 0.29178,-1.41828 0.19634,-2.13241 -0.12508,-1.00151 -0.57667,-1.94844 -1.25168,-2.62451 -0.19728,-0.18716 -0.4114,-0.35229 -0.6381,-0.4921 -0.21795,-0.14298 -0.44847,-0.2622 -0.68717,-0.3554 -0.24701,-0.0919 -0.50232,-0.15617 -0.76081,-0.19137 -0.12995,-0.0256 -0.26107,-0.0439 -0.39268,-0.0547 -0.0163,-1.1e-4 -0.0328,-1.1e-4 -0.0491,0 -21.72975,0 -36.13222,7.9709 -43.58672,15.227418 -0.34441,-4.465518 -1.37813,-9.052818 -3.11688,-13.751568 -1.94845,-5.26477 -6.5523,-8.58434 -11.51004,-8.58434 -0.80184,0 -1.61844,0.0949 -2.42971,0.27339 -5.29637,1.1679 -9.23802,5.97513 -9.91499,11.8103 -1.60352,1.72089 -5.66997,4.67898 -9.81683,7.62753 0.0665,-1.50673 0.0115,-3.0258 -0.22088,-4.5656 -1.54713,-10.23997 -9.50269,-17.7417 -18.82475,-17.7417 z m 41.20634,16.45744 c 13.67837,36.964478 -37.00081,40.884628 -44.27391,64.683698 0,-17.4355 -0.88429,-24.77014 16.29594,-38.10966 1.27776,-0.99556 2.6562,-2.01929 4.14757,-3.08922 16.07526,-11.53035 23.83055,-15.88967 23.83055,-23.484118 z m 41.32885,4.01882 c -5.26056,5.019988 -10.72234,11.440238 -14.65142,18.918348 -3.4622,6.59067 -10.38857,12.52329 -18.4313,16.4032 -3.46542,1.67181 -7.12489,2.8608 -10.74982,3.71805 8.91054,-8.83323 15.61033,-19.95415 20.05068,-25.64322 2.94269,-3.76757 10.93045,-10.12886 23.78107,-13.395498 z m -82.53205,0.79261 c -32.32093,12.462918 -19.86063,28.239728 -24.41956,55.196958 -4.66338,27.58711 -20.66089,49.02237 -28.71383,54.18566 27.12036,-11.95203 81.93518,-21.52974 98.60808,-63.99958 0.0843,-0.0285 0.16124,-0.0805 0.24542,-0.10935 -5.92794,35.1352 -18.41794,65.70201 -57.6986,88.43727 -15.8051,9.14905 -18.57722,8.85856 -18.57722,22.85245 2.36703,-15.69895 8.1486,-8.89792 37.03286,-13.09189 0.63298,-0.0919 1.27681,-0.10935 1.93886,-0.10935 2.34975,0 4.8737,0.50237 7.53445,1.01149 2.66076,0.50915 5.45737,1.01148 8.34431,1.01148 5.14559,0 10.58411,-1.62002 16.07525,-7.73688 0,28.80838 -28.68511,-7.44771 -39.87943,34.76667 -16.27891,-2.64967 -164.32807,6.95795 -142.54238,-81.27169 24.2672,-19.66196 51.85091,-14.88448 61.94418,-22.39058 14.1708,-10.54091 11.73387,-68.756948 80.10533,-68.756948 z m -31.43741,13.095428 c -12.98806,8.8446 -32.01622,30.76714 -33.91754,44.56245 -3.75317,27.24155 -54.25073,19.74652 -77.97054,37.97726 -67.04844,21.07693 99.33338,233.39495 136.09214,77.83356 3.29767,-13.96153 17.18801,-12.82325 21.80977,-12.82325 -11.21396,0 -32.55153,-28.87236 -37.82435,-12.70712 0,-19.83956 -16.27038,1.67017 -1.76182,-14.49507 14.50849,-16.16523 38.87936,-24.02477 42.21237,-47.02249 -2.57436,8.85073 -33.64345,24.99935 -65.30626,33.8177 -31.66124,8.81749 -20.77364,-0.0453 -20.77364,-0.0453 5.60502,-19.47038 3.5879,-5.66042 16.23355,-19.74705 13.92341,-15.50824 16.41845,-43.39891 16.41845,-58.09443 0,-11.40263 1.09438,-24.12013 4.78574,-29.2528 z m 126.26798,20.96897 c -14.22262,7.5774 -6.94065,31.16782 -17.52264,49.83859 -11.97104,21.12119 -37.53642,27.53025 -52.7902,27.53025 14.01843,-3.21581 16.90458,-14.00964 24.32139,-42.0193 7.42152,-28.01403 18.78548,-35.35217 45.98988,-35.35217 z m -172.65054,3.36287 c 1.55499,24.7229 -19.62266,30.18538 -32.7882,31.87731 -13.16555,1.69281 -27.34498,8.04325 -34.55524,16.07514 2.27829,-10.43419 -3.20092,-39.06673 51.66086,-42.59407 5.82256,0 15.68258,-1.69281 15.68258,-5.35838 z m 93.06354,15.00871 c -2.26965,22.91635 -12.04328,29.09358 -20.12449,33.51676 -11.54067,6.31632 -20.14885,3.62182 -30.48087,13.88803 0,-11.53122 9.22389,-22.63028 20.83603,-28.4322 13.91633,-6.95321 19.8457,-5.40212 29.77248,-18.97522 z m 32.88638,63.78087 c -8.90818,21.44313 -20.05931,23.37389 -32.91072,23.70284 -12.86084,0.32806 -28.44918,-1.4894 -33.64738,7.49079 6.39193,-11.04307 13.55979,-18.28235 33.45104,-19.00059 19.45382,-0.70074 26.72534,-2.26976 33.10706,-12.19348 z"
       style="color:#000000;text-indent:0;text-transform:none;stroke-width:0.828888;enable-background:accumulate"
       fill="#800000"
       sodipodi:nodetypes="ccccscccscssccsccccccccccccccccccccsccccccccccccccscccccccccccssssccccccccccccsccccsccccccccccccccccscccccccc" /></g><g
     inkscape:groupmode="layer"
     id="layer2"
     inkscape:label="Layer 2"
     transform="matrix(1.7685184,0,0,1.7685184,-202.3123,-152.388)"
     style="display:inline"><g
       id="g11296"
       inkscape:label="pilot-helmet-freesvg.org"
       transform="matrix(0.36549233,0,0,-0.36549233,100.27098,382.542)"><g
         id="g12084"
         style="display:inline" /><g
         id="g12087"
         style="display:inline"><path
           id="path11398"
           style="display:inline;fill:#808080;fill-opacity:1;fill-rule:evenodd;stroke:none"
           d="m 331.4928,642.97102 -74.24764,-10.3068 c -19.53675,-4.733 -35.046,-11.90004 -52.67014,-21.21189 -26.44286,-14.05186 -50.28068,-32.35582 -70.60054,-54.00268 -42.09449,-44.8451 -59.918928,-98.3442 -47.430622,-156.91962 0.537617,0.77247 1.040967,-2.84801 1.664921,-2.14234 1.088942,1.29705 2.449624,4.92878 3.547402,6.21853 0.555301,0.70037 3.381064,4.64614 3.991581,5.29693 6.479498,10.54197 15.881478,19.02722 20.952028,24.88619 49.28465,56.94265 127.16164,93.69792 214.79301,93.69792 87.63344,0 165.50837,-36.75527 214.79302,-93.69792 5.36938,-6.20525 17.70607,-20.75613 24.57799,-30.88414 1.95959,-2.48178 2.93249,-3.75827 4.02784,-6.46327 11.23195,57.36666 -4.61339,116.04677 -45.88052,160.00772 -20.31986,21.64786 -44.15868,39.95182 -70.60054,54.00268 -36.9845,17.58274 -0.31287,0.0838 -52.66712,21.21189 -23.59479,6.70993 -48.50381,10.3068 -74.25067,10.3068 z M 77.838524,402.88993 c -4.279972,-2.648 -7.14617,-7.38444 -7.14617,-12.76037 v -87.88731 c 0,-8.244 6.743372,-14.98732 14.987316,-14.98732 h 8.898719 c -1.571986,11.62493 -2.251691,23.3664 -2.051691,35.09933 0.016,0.945 0.0272,1.89231 0.0272,2.83731 0,16.08493 -2.330568,32.3403 -7.336533,47.64516 -3.270979,9.99593 -5.72285,20.03527 -7.378836,30.0532 z m 507.308566,0 c -1.656,-10.01593 -4.10682,-20.05727 -7.37582,-30.0532 -5.00693,-15.30486 -7.33653,-31.56023 -7.33653,-47.64516 0,-0.945 0.009,-1.89031 0.0242,-2.83731 0.201,-11.73293 -0.48069,-23.4744 -2.05169,-35.09933 h 8.89872 c 8.24393,0 14.99034,6.74332 14.99034,14.98732 v 87.88731 c 0,5.37593 -2.86826,10.11237 -7.14919,12.76037 z M 331.4928,340.56566 c -14.53086,0 -27.80435,-4.48123 -39.55321,-13.28916 0.089,-36.85072 4.62356,-61.1048 12.35849,-84.01659 2.616,-7.746 0.56918,-15.81617 -5.42082,-21.3811 -5.99093,-5.562 -14.19161,-7.00639 -21.72254,-3.82539 -5.249,2.21793 -9.35475,6.15165 -11.97475,11.53358 -7.47493,15.35293 -12.54304,32.59867 -15.36804,51.60653 -24.90679,-21.73086 -55.46478,-30.84019 -86.80557,-24.46619 -21.73371,4.41621 -43.5146,20.35193 -57.69814,40.86159 -0.76411,0.62858 -1.46725,1.32585 -2.15745,2.03356 -0.3779,0.40209 -0.74261,0.81545 -1.10894,1.22678 1.02112,-13.05702 3.05634,-25.83228 6.2699,-38.15118 8.17593,-31.33579 28.04505,-54.95672 57.51684,-68.38265 l 42.91026,-19.54696 20.73145,-53.30771 c 9.58593,-4.173 19.58766,-7.72375 29.96859,-10.57875 22.94179,-6.31693 32.12721,25.47239 72.05393,25.47239 39.92772,0 49.11115,-31.79041 72.05394,-25.47541 10.37893,2.85693 20.38366,6.40979 29.96859,10.58479 l 20.73145,53.30469 42.91026,19.54696 c 29.47279,13.42593 49.34291,37.04886 57.51684,68.38265 3.51796,13.48577 5.5282,27.45599 6.30314,41.79225 -0.0475,-0.0911 -0.0952,-0.18222 -0.14504,-0.27194 -0.41191,-0.7411 -0.33395,-0.56547 -0.98506,-1.48665 -0.38213,-0.49602 -0.82053,-0.94316 -1.24189,-1.40506 -14.02925,-21.81974 -36.03415,-40.00901 -58.62579,-44.59935 -31.33972,-6.374 -61.89777,2.73733 -86.80556,24.46619 -2.826,-19.00686 -7.89409,-36.2536 -15.36502,-51.60653 -2.621,-5.38193 -6.72884,-9.31565 -11.97777,-11.53358 -7.53093,-3.181 -15.72961,-1.73661 -21.72254,3.82539 -5.991,5.56493 -8.03782,13.6351 -5.42082,21.3811 7.73493,22.91179 12.26847,47.16587 12.35547,84.01659 -11.74793,8.80793 -25.02027,13.28916 -39.5502,13.28916 z m -219.26806,-47.4125 c 0.39936,-0.28009 0.7469,-0.63169 1.15427,-0.90044 -0.1616,0.16813 -0.30711,0.3506 -0.46835,0.51972 0.097,-0.15655 -0.0233,-0.002 -0.2508,0.21453 -0.0325,0.031 0.004,-0.006 -0.0363,0.0302 -0.0203,0.0183 -0.0834,0.0697 -0.0665,0.0483 0.0199,-0.0251 0.0445,-0.0454 0.0695,-0.0665 0.0128,-0.0108 0.0521,-0.0291 0.0363,-0.0332 -0.0228,-0.006 -0.2353,0.17979 -0.0786,0.0453 0.12462,-0.0708 -0.0496,0.0275 -0.0483,0.0242 -0.002,6.2e-4 -0.004,-6.3e-4 -0.006,0 -0.10582,0.0364 -0.20272,0.0814 -0.30519,0.11784 z m 165.58265,-11.10149 c -7.82193,0 -14.16543,-11.29882 -14.16543,-25.23368 0,-13.93593 6.3435,-25.23369 14.16543,-25.23369 7.82193,0 14.16241,11.29776 14.16241,25.23369 0,13.93486 -6.34048,25.23368 -14.16241,25.23368 z m 107.37385,0 c -7.82393,0 -14.16543,-11.29882 -14.16543,-25.23368 0,-13.93593 6.3415,-25.23369 14.16543,-25.23369 7.82093,0 14.16241,11.29776 14.16241,25.23369 0,13.93486 -6.34148,25.23368 -14.16241,25.23368 z M 153.71483,243.99114 c 1.36763,0.13575 2.87133,-0.078 4.44483,-0.69195 l 35.07213,-13.69708 c 6.294,-2.457 11.44294,-10.40149 11.44294,-17.65542 0,-7.25393 -5.14894,-11.17644 -11.44294,-8.72044 l -35.07213,13.70009 c -6.29393,2.459 -11.44294,10.39847 -11.44294,17.6524 0,5.4405 2.8953,9.00515 6.99811,9.4124 z m 355.55595,0 c 4.10253,-0.40725 6.99811,-3.9719 6.99811,-9.4124 0,-7.25393 -5.14799,-15.1934 -11.43992,-17.6524 l -35.07515,-13.70009 c -6.292,-2.456 -11.44294,1.46651 -11.44294,8.72044 0,7.25393 5.15094,15.19842 11.44294,17.65542 l 35.07515,13.69708 c 1.573,0.614 3.07428,0.8277 4.44181,0.69195 z M 156.52193,237.3798 c -2.69726,-0.26705 -4.60195,-2.61081 -4.60195,-6.18831 0,-4.768 3.38688,-9.99413 7.52388,-11.60913 l 23.06112,-9.00447 c 4.138,-1.615 7.52086,0.96511 7.52086,5.73204 0,4.77 -3.38286,9.99413 -7.52086,11.60913 l -23.06112,9.00447 c -1.03425,0.40425 -2.02282,0.54529 -2.92193,0.45627 z m 349.94175,0 c -0.89916,0.089 -1.88743,-0.052 -2.92193,-0.45627 l -23.06112,-9.00447 c -4.136,-1.615 -7.52086,-6.83913 -7.52086,-11.60913 0,-4.76693 3.38486,-7.34704 7.52086,-5.73204 l 23.06112,9.00447 c 4.138,1.615 7.52086,6.84113 7.52086,11.60913 0,3.5775 -1.90153,5.92126 -4.59893,6.18831 z M 331.4928,212.0464 c 18.25193,0 33.04764,-17.7124 33.04764,-39.55926 0,-8.63193 -2.31066,-16.61461 -6.22759,-23.11854 8.92682,29.58093 -16.20417,53.97851 -27.2461,53.97851 -11.04193,0 -28.49577,-13.73344 -26.39097,-53.97851 -3.91893,6.50393 -6.23061,14.48661 -6.23061,23.11854 0,21.84686 14.79577,39.55926 33.04763,39.55926 z m 0,-83.67817 c -23.87379,0 -43.31871,-14.83303 -44.09171,-33.361888 7.37593,10.256928 24.34085,17.434838 44.09171,17.434838 19.75186,0 36.71479,-7.17791 44.09172,-17.434838 -0.772,18.528858 -20.21686,33.361888 -44.09172,33.361888 z m 0,-19.97906 c -23.00279,0 -41.73718,-14.296337 -42.48118,-32.150211 7.10693,9.88293 23.45032,16.800298 42.48118,16.800298 19.03093,0 35.37628,-6.917368 42.48421,-16.800298 -0.745,17.853874 -19.48035,32.150211 -42.48421,32.150211 z m 0,-19.982082 c -22.13179,0 -40.15567,-13.75461 -40.87367,-30.932491 6.83993,9.509937 22.56381,16.165755 40.87367,16.165755 18.30993,0 34.03575,-6.655818 40.87368,-16.165755 -0.716,17.177881 -18.74082,30.932491 -40.87368,30.932491 z m 0,-19.982081 c -21.26179,0 -38.57716,-13.213883 -39.26616,-29.714771 6.56893,9.134937 21.6763,15.528189 39.26616,15.528189 17.58993,0 32.69417,-6.393252 39.26617,-15.528189 -0.691,16.500888 -18.00531,29.714771 -39.26617,29.714771 z m 0,-19.985102 c -20.38886,0 -36.99463,-12.669142 -37.65563,-28.49403 6.301,8.760937 20.78777,14.890623 37.65563,14.890623 16.86893,0 31.35764,-6.129686 37.65564,-14.890623 -0.659,15.824888 -17.26478,28.49403 -37.65564,28.49403 z"
           sodipodi:nodetypes="cccccccccscccccccssssccscssscsccsssssscccccccccccccccsscccscccccccccccssccssssscccsssssssssssssccsccssssccsccsssccsccssccsccsssscscssscscsscscsscscsscscsscscs" /></g></g><path
       style="display:inline;fill:#000000;fill-rule:evenodd;stroke-width:0.155907"
       d="m 161.98782,286.47046 c -7.14992,-0.86844 -13.29222,-3.75013 -19.23899,-9.02608 -1.58413,-1.40543 -3.44985,-3.41052 -4.70253,-5.05382 l -0.57878,-0.75925 -0.12256,-6.49044 c -0.13976,-7.40108 -0.30875,-9.27175 -1.2623,-13.974 -0.37689,-1.8586 -0.99527,-4.17459 -1.76917,-6.62607 -0.63948,-2.02568 -1.71597,-6.16733 -1.87004,-7.19475 -0.0999,-0.66629 -0.0797,-0.70726 0.9496,-1.92693 2.28616,-2.70891 10.36543,-11.17503 12.84812,-13.46331 9.65143,-8.89564 20.78643,-15.63427 33.88026,-20.50352 19.7718,-7.35261 42.61741,-9.18895 64.02961,-5.14671 21.31086,4.0231 40.67092,13.84338 54.5676,27.67908 3.08211,3.0686 8.26808,8.74855 10.51219,11.51351 1.15168,1.41898 1.19815,1.50729 1.10759,2.10475 -0.17557,1.15833 -1.02642,4.43354 -1.81314,6.97936 -2.28481,7.39358 -2.90189,11.60747 -3.03008,20.69139 l -0.0803,5.68781 -0.41103,0.59311 c -2.01515,2.90786 -6.49351,7.14483 -10.14532,9.59846 -5.66114,3.80369 -10.2914,5.26641 -17.22123,5.44026 -4.87779,0.12237 -8.30982,-0.33917 -12.51679,-1.68328 -8.29104,-2.64895 -15.14376,-7.5981 -21.46442,-15.50199 -5.0752,-6.34647 -9.62063,-9.58511 -15.64154,-11.14468 -2.4868,-0.64414 -4.53133,-0.84042 -7.63947,-0.7334 -6.11921,0.2107 -10.98197,2.10129 -15.82639,6.15313 -1.86847,1.56278 -2.93562,2.70434 -5.31614,5.68685 -2.40178,3.00914 -6.63477,7.24469 -9.02556,9.03103 -5.55107,4.14763 -11.14837,6.61508 -17.63755,7.77516 -1.5608,0.27903 -2.64278,0.35355 -5.67061,0.39059 -2.05797,0.0252 -4.26796,-0.0181 -4.91108,-0.0963 z"
       id="path4" /></g></svg>
